<?xml version="1.0" encoding="UTF-8"?>
<svg id="Layer_1" data-name="Layer 1" xmlns="http://www.w3.org/2000/svg" width=".28in" height=".28in" viewBox="0 0 19.95 19.89">
  <g id="aUwmEP">
    <g>
      <path d="M3.54,1.26c-1.29.13-2.36,1.26-2.46,2.54-.08,1.08.06,2.27,0,3.36.02.39.48.45.58.07.2-1.67-.65-4.14,1.16-5.13,1.04-.56,3.01-.13,4.22-.27.37-.04.39-.5.04-.58-1.14.07-2.41-.11-3.53,0ZM13.01,1.26c-.3.11-.3.45,0,.56,1.11.08,2.33-.09,3.43,0s1.91.96,2.01,2.01c.1,1.05-.07,2.32,0,3.42.12.34.53.28.57-.06-.07-1.12.1-2.36,0-3.47-.12-1.28-1.22-2.34-2.48-2.48h-3.53ZM9.54,4.92c-3.58.28-5.79,4.15-4.38,7.43,1.56,3.62,6.49,4.34,8.99,1.28,3.03-3.69.12-9.08-4.62-8.7ZM1.36,12.94c-.14,0-.28.15-.28.29.16,1.54-.43,3.57.57,4.86,1.27,1.68,3.54.92,5.35,1.09.36,0,.46-.44.1-.58-1.72-.2-4.47.7-5.28-1.41-.4-1.06-.02-2.85-.16-4-.02-.13-.16-.27-.3-.27h0ZM18.72,12.94c-.15,0-.26.15-.28.29-.14,1.21.29,3.18-.27,4.21-.35.64-1.01,1.08-1.74,1.15-1.09.1-2.32-.07-3.43,0-.36.13-.27.56.1.58,1.52-.16,3.54.42,4.83-.57,1.68-1.29.91-3.56,1.09-5.39,0-.15-.15-.3-.3-.29h0Z" fill="#fff"/>
      <path d="M9.54,4.92c4.75-.37,7.64,5.01,4.62,8.7-2.5,3.06-7.44,2.34-8.99-1.28-1.41-3.27.79-7.14,4.38-7.43Z" fill="#fff"/>
      <path d="M3.54,1.26c1.13-.12,2.4.06,3.53,0,.36.09.34.53-.04.58-1.2.14-3.18-.29-4.22.27-1.81.98-.96,3.46-1.16,5.13-.1.38-.56.32-.58-.07.06-1.1-.08-2.28,0-3.36.1-1.28,1.17-2.4,2.46-2.54Z" fill="#fff"/>
      <path d="M13.01,1.26h3.53c1.26.13,2.36,1.2,2.48,2.48.1,1.11-.07,2.34,0,3.47-.04.35-.45.4-.57.06-.08-1.11.09-2.32,0-3.42s-.96-1.91-2.01-2.01-2.32.07-3.43,0c-.3-.11-.3-.45,0-.56h0Z" fill="#fff"/>
      <path d="M1.36,12.94c.14,0,.28.12.3.27.14,1.15-.25,2.95.16,4,.81,2.1,3.56,1.2,5.28,1.41.36.13.27.56-.1.58-1.81-.17-4.07.59-5.35-1.09-.99-1.3-.41-3.33-.57-4.86,0-.14.13-.28.28-.29h0Z" fill="#fff"/>
      <path d="M18.72,12.94c.15,0,.3.15.3.29-.17,1.83.59,4.1-1.09,5.39-1.28.98-3.31.41-4.83.57-.36,0-.46-.44-.1-.58,1.11-.08,2.33.09,3.43,0,.73-.07,1.39-.51,1.74-1.15.56-1.04.13-3.01.27-4.21.02-.14.12-.28.28-.29h0Z" fill="#fff"/>
    </g>
  </g>
</svg>